<?xml version="1.0" standalone="no"?>
<!DOCTYPE svg PUBLIC "-//W3C//DTD SVG 20010904//EN"
 "http://www.w3.org/TR/2001/REC-SVG-20010904/DTD/svg10.dtd">
<svg version="1.0" xmlns="http://www.w3.org/2000/svg"
 width="460.000000pt" height="460.000000pt" viewBox="0 0 460.000000 460.000000"
 preserveAspectRatio="xMidYMid meet">
<metadata>
Created by potrace 1.14, written by Peter Selinger 2001-2017
</metadata>
<g transform="translate(0.000000,460.000000) scale(0.100000,-0.100000)"
fill="#000000" stroke="none">
<path d="M870 4593 c-73 -12 -203 -49 -270 -77 -272 -115 -503 -387 -569 -671
-6 -27 -15 -61 -19 -75 -11 -40 -13 -2858 -1 -2915 5 -27 12 -63 15 -79 16
-93 77 -230 147 -334 44 -67 162 -195 213 -232 67 -50 92 -65 162 -100 90 -45
185 -77 285 -95 57 -11 359 -13 1492 -11 781 1 1434 5 1450 9 17 5 55 14 86
22 255 66 487 251 621 495 29 54 75 168 83 207 35 170 35 153 35 1577 -1 1369
-1 1393 -21 1486 -46 211 -132 366 -284 516 -141 138 -299 221 -505 265 -80
17 -167 18 -1490 17 -773 0 -1416 -3 -1430 -5z"/>
</g>
</svg>
